<mxfile host="app.diagrams.net" modified="2021-07-04T12:19:17.032Z" agent="5.0 (Windows NT 10.0; Win64; x64) AppleWebKit/537.36 (KHTML, like Gecko) Chrome/91.0.4472.124 Safari/537.36" etag="zwoRLSyLCYP9RDshVXgK" version="14.8.4" type="github">
  <diagram id="OpboVeKp4PLWxCIJxXDE" name="Page-1">
    <mxGraphModel dx="782" dy="436" grid="1" gridSize="10" guides="1" tooltips="1" connect="1" arrows="1" fold="1" page="1" pageScale="1" pageWidth="850" pageHeight="1100" math="0" shadow="0">
      <root>
        <mxCell id="0" />
        <mxCell id="1" parent="0" />
        <mxCell id="5HulXK3OnuvkSpBskchs-1" value="کاربر" style="shape=umlLifeline;participant=umlActor;perimeter=lifelinePerimeter;whiteSpace=wrap;html=1;container=1;collapsible=0;recursiveResize=0;verticalAlign=top;spacingTop=36;labelBackgroundColor=#ffffff;outlineConnect=0;size=50;fontFamily=B Zar;fontSize=13;fontStyle=1" vertex="1" parent="1">
          <mxGeometry x="20" y="20" width="20" height="310" as="geometry" />
        </mxCell>
        <mxCell id="5HulXK3OnuvkSpBskchs-2" value="&lt;font style=&quot;font-size: 13px;&quot;&gt;&lt;br style=&quot;font-size: 13px;&quot;&gt;صفحه نمایش&lt;br style=&quot;font-size: 13px;&quot;&gt;&lt;/font&gt;&lt;br style=&quot;font-size: 13px;&quot;&gt;" style="shape=umlLifeline;perimeter=lifelinePerimeter;whiteSpace=wrap;html=1;container=1;collapsible=0;recursiveResize=0;outlineConnect=0;fontFamily=B Zar;fontSize=13;fontStyle=1;fillColor=#BFBFBF;" vertex="1" parent="1">
          <mxGeometry x="269" y="20" width="100" height="310" as="geometry" />
        </mxCell>
        <mxCell id="5HulXK3OnuvkSpBskchs-3" value="تاریخچه" style="shape=umlLifeline;perimeter=lifelinePerimeter;whiteSpace=wrap;html=1;container=1;collapsible=0;recursiveResize=0;outlineConnect=0;fontFamily=B Zar;fontSize=13;fontStyle=1;fillColor=#BFBFBF;" vertex="1" parent="1">
          <mxGeometry x="455" y="20" width="100" height="310" as="geometry" />
        </mxCell>
        <mxCell id="5HulXK3OnuvkSpBskchs-4" value="" style="html=1;points=[];perimeter=orthogonalPerimeter;fillColor=#5EBEA0;" vertex="1" parent="1">
          <mxGeometry x="314" y="155" width="10" height="40" as="geometry" />
        </mxCell>
        <mxCell id="5HulXK3OnuvkSpBskchs-5" value="&lt;font style=&quot;font-size: 13px&quot;&gt;انتخاب گزینه ی&amp;nbsp;&lt;br style=&quot;font-size: 13px&quot;&gt;ثبت امتیاز&lt;br style=&quot;font-size: 13px&quot;&gt;&lt;/font&gt;" style="html=1;verticalAlign=bottom;startArrow=oval;endArrow=block;startSize=8;strokeColor=#28408E;fontFamily=B Zar;fontSize=13;entryX=0;entryY=0.133;entryDx=0;entryDy=0;entryPerimeter=0;" edge="1" parent="1" target="5HulXK3OnuvkSpBskchs-4">
          <mxGeometry relative="1" as="geometry">
            <mxPoint x="30" y="160" as="sourcePoint" />
            <mxPoint x="309" y="160" as="targetPoint" />
          </mxGeometry>
        </mxCell>
        <mxCell id="5HulXK3OnuvkSpBskchs-6" value="&lt;font style=&quot;font-size: 13px;&quot;&gt;ثبت در پایگاه داده&lt;/font&gt;" style="html=1;verticalAlign=bottom;endArrow=block;fontFamily=B Zar;fontSize=13;strokeColor=#28408E;entryX=0.067;entryY=0.144;entryDx=0;entryDy=0;entryPerimeter=0;" edge="1" parent="1" target="5HulXK3OnuvkSpBskchs-7">
          <mxGeometry relative="1" as="geometry">
            <mxPoint x="324" y="170" as="sourcePoint" />
            <mxPoint x="490" y="170" as="targetPoint" />
          </mxGeometry>
        </mxCell>
        <mxCell id="5HulXK3OnuvkSpBskchs-7" value="" style="html=1;points=[];perimeter=orthogonalPerimeter;fillColor=#5EBEA0;" vertex="1" parent="1">
          <mxGeometry x="500" y="165" width="10" height="30" as="geometry" />
        </mxCell>
      </root>
    </mxGraphModel>
  </diagram>
</mxfile>
